<?xml version="1.0" encoding="UTF-8" standalone="no"?>
<!DOCTYPE svg PUBLIC "-//W3C//DTD SVG 1.1//EN"
 "http://www.w3.org/Graphics/SVG/1.1/DTD/svg11.dtd">
<!-- Generated by graphviz version 2.40.1 (20161225.0304)
 -->
<!-- Title: D Pages: 1 -->
<svg width="621pt" height="644pt"
 viewBox="0.00 0.00 621.00 644.00" xmlns="http://www.w3.org/2000/svg" xmlns:xlink="http://www.w3.org/1999/xlink">
<g id="graph0" class="graph" transform="scale(1 1) rotate(0) translate(4 640)">
<title>D</title>
<polygon fill="#ffffff" stroke="transparent" points="-4,4 -4,-640 617,-640 617,4 -4,4"/>
<!-- step_1 -->
<g id="node1" class="node">
<title>step_1</title>
<text text-anchor="start" x="52.5" y="-618.9" font-family="Sans serif" font-weight="bold" font-size="12.00" fill="#000000">Step1</text>
<text text-anchor="start" x="92.5" y="-618.9" font-family="Sans serif" font-size="12.00" fill="#000000"> &#160;&#160;&#160;&#160;&#160;&#160;&#160;</text>
<text text-anchor="start" x="52.5" y="-599.9" font-family="Sans serif" font-size="12.00" fill="#000000">Local PC &#160;&#160;&#160;&#160;&#160;&#160;&#160;</text>
<text text-anchor="start" x="52.5" y="-581.9" font-family="Sans serif" font-size="12.00" fill="#000000">(Developer machine) &#160;&#160;&#160;&#160;&#160;&#160;&#160;</text>
<text text-anchor="start" x="52.5" y="-563.9" font-family="Sans serif" font-size="12.00" fill="#000000">contribute source code &#160;&#160;&#160;&#160;&#160;&#160;&#160;</text>
<text text-anchor="start" x="52.5" y="-546.9" font-family="Sans serif" font-size="12.00" fill="#006400">commit</text>
<text text-anchor="start" x="98.5" y="-546.9" font-family="Sans serif" font-size="12.00" fill="#000000"> &#160;&#160;&#160;&#160;&#160;&#160;&#160;</text>
<polygon fill="none" stroke="#000000" points="48,-539 48,-632 225,-632 225,-539 48,-539"/>
</g>
<!-- step_2 -->
<g id="node2" class="node">
<title>step_2</title>
<text text-anchor="start" x="191.5" y="-468.9" font-family="Sans serif" font-weight="bold" font-size="12.00" fill="#000000">Step 2</text>
<text text-anchor="start" x="236.5" y="-468.9" font-family="Sans serif" font-size="12.00" fill="#000000"> &#160;&#160;&#160;&#160;&#160;&#160;&#160;</text>
<text text-anchor="start" x="191.5" y="-449.9" font-family="Sans serif" font-size="12.00" fill="#000000">Github receive and &#160;&#160;&#160;&#160;&#160;&#160;&#160;</text>
<text text-anchor="start" x="191.5" y="-431.9" font-family="Sans serif" font-size="12.00" fill="#000000">store the source code &#160;&#160;&#160;&#160;&#160;&#160;&#160;</text>
<text text-anchor="start" x="191.5" y="-414.9" font-family="Sans serif" font-size="12.00" fill="#006400">done</text>
<text text-anchor="start" x="222.5" y="-414.9" font-family="Sans serif" font-size="12.00" fill="#000000"> &#160;&#160;&#160;&#160;&#160;&#160;&#160;</text>
<polygon fill="none" stroke="#000000" points="187.5,-407 187.5,-482 357.5,-482 357.5,-407 187.5,-407"/>
</g>
<!-- step_1&#45;&gt;step_2 -->
<g id="edge1" class="edge">
<title>step_1&#45;&gt;step_2</title>
<path fill="none" stroke="#000000" d="M181.7579,-534.568C191.1331,-524.3268 201.0385,-513.7265 210.5,-504 213.9864,-500.4159 217.6227,-496.7504 221.3097,-493.0863"/>
<polygon fill="#000000" stroke="#000000" points="223.7704,-495.5753 228.4368,-486.0635 218.8572,-490.5893 223.7704,-495.5753"/>
<text text-anchor="middle" x="251.5" y="-507.4" font-family="Helvetica,sans-Serif" font-size="12.00" fill="#000000">Commit &amp; push</text>
</g>
<!-- step_3 -->
<g id="node3" class="node">
<title>step_3</title>
<text text-anchor="start" x="186.5" y="-324.4" font-family="Sans serif" font-weight="bold" font-size="12.00" fill="#000000">Step 3</text>
<text text-anchor="start" x="231.5" y="-324.4" font-family="Sans serif" font-size="12.00" fill="#000000"> &#160;&#160;&#160;&#160;&#160;&#160;&#160;</text>
<text text-anchor="start" x="186.5" y="-305.4" font-family="Sans serif" font-size="12.00" fill="#000000">Travis Building start</text>
<text text-anchor="start" x="230" y="-292.4" font-family="Sans serif" font-size="12.00" fill="#000000"> &#160;&#160;&#160;&#160;&#160;&#160;&#160;</text>
<text text-anchor="start" x="186.5" y="-274.4" font-family="Sans serif" font-size="12.00" fill="#000000">case 1. if the build occurs on the &quot;feature&quot; branch: &#160;&#160;&#160;&#160;&#160;&#160;&#160;</text>
<text text-anchor="start" x="186.5" y="-256.4" font-family="Sans serif" font-size="12.00" fill="#000000">it will be merged to &quot;develop&quot; by travis if the build result is &quot;OK&quot;. &#160;&#160;&#160;&#160;&#160;&#160;&#160;</text>
<text text-anchor="start" x="186.5" y="-233.4" font-family="Sans serif" font-size="12.00" fill="#000000">case 2. If the build occurs on the &quot;develop&quot; branch: &#160;&#160;&#160;&#160;&#160;&#160;&#160;</text>
<text text-anchor="start" x="186.5" y="-215.4" font-family="Sans serif" font-size="12.00" fill="#000000">It will deploy to the &quot;staging&quot; site if the build is &quot;OK&quot; &#160;&#160;&#160;&#160;&#160;&#160;&#160;</text>
<text text-anchor="start" x="186.5" y="-192.4" font-family="Sans serif" font-size="12.00" fill="#000000">case 3. If the build occurs on the &quot;master&quot; branch: &#160;&#160;&#160;&#160;&#160;&#160;&#160;</text>
<text text-anchor="start" x="186.5" y="-174.4" font-family="Sans serif" font-size="12.00" fill="#000000">It will deploy to the &quot;production&quot; site if the build is &quot;OK&quot; &#160;&#160;&#160;&#160;&#160;&#160;&#160;</text>
<text text-anchor="start" x="186.5" y="-157.4" font-family="Sans serif" font-size="12.00" fill="#006400">Deploy</text>
<text text-anchor="start" x="228.5" y="-157.4" font-family="Sans serif" font-size="12.00" fill="#000000"> &#160;&#160;&#160;&#160;&#160;&#160;&#160;</text>
<polygon fill="none" stroke="#000000" points="182,-149 182,-337 605,-337 605,-149 182,-149"/>
</g>
<!-- step_2&#45;&gt;step_3 -->
<g id="edge2" class="edge">
<title>step_2&#45;&gt;step_3</title>
<path fill="none" stroke="#000000" d="M294.672,-402.8788C302.3424,-388.8307 311.1198,-373.1327 319.5,-359 321.2904,-355.9805 323.1192,-352.9255 324.9759,-349.8489"/>
<polygon fill="#000000" stroke="#000000" points="328.0704,-351.4962 330.274,-341.1331 322.0888,-347.8602 328.0704,-351.4962"/>
<text text-anchor="middle" x="353.5" y="-368.9" font-family="Helvetica,sans-Serif" font-size="12.00" fill="#000000">Trigger build</text>
</g>
<!-- firebase_production -->
<g id="node4" class="node">
<title>firebase_production</title>
<text text-anchor="start" x="303.5" y="-65.9" font-family="Sans serif" font-weight="bold" font-size="12.00" fill="#000000">Step 4</text>
<text text-anchor="start" x="303.5" y="-46.9" font-family="Sans serif" font-size="12.00" fill="#000000">firebase hosting</text>
<text text-anchor="start" x="303.5" y="-28.9" font-family="Sans serif" font-size="12.00" fill="#000000">production : production&#45;portfolio.web.app</text>
<text text-anchor="start" x="303.5" y="-11.9" font-family="Sans serif" font-size="12.00" fill="#006400">Done</text>
<text text-anchor="start" x="335.5" y="-11.9" font-family="Sans serif" font-size="12.00" fill="#000000"> &#160;&#160;&#160;&#160;&#160;&#160;&#160;</text>
<polygon fill="none" stroke="#000000" points="299.5,-4 299.5,-79 557.5,-79 557.5,-4 299.5,-4"/>
</g>
<!-- step_3&#45;&gt;firebase_production -->
<g id="edge3" class="edge">
<title>step_3&#45;&gt;firebase_production</title>
<path fill="none" stroke="#000000" d="M410.5386,-144.9062C413.6475,-127.0078 416.7759,-108.9975 419.5308,-93.137"/>
<polygon fill="#000000" stroke="#000000" points="423.0202,-93.4991 421.2833,-83.0476 416.1235,-92.3011 423.0202,-93.4991"/>
<text text-anchor="start" x="417.5" y="-117.4" font-family="Helvetica,sans-Serif" font-size="12.00" fill="#000000">Build and merge OK</text>
<text text-anchor="middle" x="472" y="-104.4" font-family="Helvetica,sans-Serif" font-size="12.00" fill="#000000">branch==&quot;master&quot;</text>
</g>
<!-- firebase_staging -->
<g id="node5" class="node">
<title>firebase_staging</title>
<text text-anchor="start" x="12.5" y="-65.9" font-family="Sans serif" font-weight="bold" font-size="12.00" fill="#000000">Step 4</text>
<text text-anchor="start" x="12.5" y="-46.9" font-family="Sans serif" font-size="12.00" fill="#000000">firebase hosting</text>
<text text-anchor="start" x="12.5" y="-28.9" font-family="Sans serif" font-size="12.00" fill="#000000">staging : staging&#45;portfolio&#45;c7cb5.web.app</text>
<text text-anchor="start" x="12.5" y="-11.9" font-family="Sans serif" font-size="12.00" fill="#006400">Done</text>
<text text-anchor="start" x="44.5" y="-11.9" font-family="Sans serif" font-size="12.00" fill="#000000"> &#160;&#160;&#160;&#160;&#160;&#160;&#160;</text>
<polygon fill="none" stroke="#000000" points="8,-4 8,-79 265,-79 265,-4 8,-4"/>
</g>
<!-- step_3&#45;&gt;firebase_staging -->
<g id="edge4" class="edge">
<title>step_3&#45;&gt;firebase_staging</title>
<path fill="none" stroke="#000000" d="M268.3878,-144.9062C243.7116,-125.5589 218.8686,-106.0809 197.5023,-89.3286"/>
<polygon fill="#000000" stroke="#000000" points="199.5204,-86.4634 189.4912,-83.0476 195.2013,-91.9721 199.5204,-86.4634"/>
<text text-anchor="start" x="242.5" y="-117.4" font-family="Helvetica,sans-Serif" font-size="12.00" fill="#000000">Build and merge OK</text>
<text text-anchor="middle" x="297" y="-104.4" font-family="Helvetica,sans-Serif" font-size="12.00" fill="#000000">branch==&quot;develop&quot;</text>
</g>
<!-- merge_develop_to_feature -->
<g id="node6" class="node">
<title>merge_develop_to_feature</title>
<text text-anchor="start" x="263.5" y="-618.9" font-family="Sans serif" font-weight="bold" font-size="12.00" fill="#000000">Merge updated develop branch</text>
<text text-anchor="start" x="263.5" y="-600.9" font-family="Sans serif" font-weight="bold" font-size="12.00" fill="#000000">to feature branch</text>
<text text-anchor="start" x="263.5" y="-581.9" font-family="Sans serif" font-size="12.00" fill="#000000">developer merge the updated develop branch</text>
<text text-anchor="start" x="263.5" y="-563.9" font-family="Sans serif" font-size="12.00" fill="#000000">its feature branch and test again</text>
<text text-anchor="start" x="263.5" y="-546.9" font-family="Sans serif" font-size="12.00" fill="#006400">Done</text>
<text text-anchor="start" x="295.5" y="-546.9" font-family="Sans serif" font-size="12.00" fill="#000000"> &#160;&#160;&#160;&#160;&#160;&#160;&#160;</text>
<polygon fill="none" stroke="#000000" points="259,-539 259,-632 544,-632 544,-539 259,-539"/>
</g>
<!-- step_3&#45;&gt;merge_develop_to_feature -->
<g id="edge5" class="edge">
<title>step_3&#45;&gt;merge_develop_to_feature</title>
<path fill="none" stroke="#000000" d="M395.795,-341.2543C397.1777,-400.4519 398.8948,-473.9663 400.082,-524.7932"/>
<polygon fill="#000000" stroke="#000000" points="396.5869,-525.0474 400.3196,-534.9629 403.585,-524.8839 396.5869,-525.0474"/>
<text text-anchor="middle" x="461" y="-441.4" font-family="Helvetica,sans-Serif" font-size="12.00" fill="#000000">Merge to &quot;develop&quot; Fail</text>
</g>
<!-- firebase_staging&#45;&gt;step_1 -->
<g id="edge7" class="edge">
<title>firebase_staging&#45;&gt;step_1</title>
<path fill="none" stroke="#000000" d="M136.5,-83.1334C136.5,-178.516 136.5,-413.1966 136.5,-524.7324"/>
<polygon fill="#000000" stroke="#000000" points="133.0001,-524.8103 136.5,-534.8103 140.0001,-524.8103 133.0001,-524.8103"/>
<text text-anchor="start" x="136.5" y="-375.4" font-family="Helvetica,sans-Serif" font-size="12.00" fill="#000000">Fetch updated </text>
<text text-anchor="middle" x="184" y="-362.4" font-family="Helvetica,sans-Serif" font-size="12.00" fill="#000000"> &quot;develop&quot; branch</text>
</g>
<!-- merge_develop_to_feature&#45;&gt;step_2 -->
<g id="edge6" class="edge">
<title>merge_develop_to_feature&#45;&gt;step_2</title>
<path fill="none" stroke="#000000" d="M322.9205,-534.9947C316.6312,-529.3392 310.7074,-523.3211 305.5,-517 300.1279,-510.479 295.4404,-502.9413 291.4168,-495.2437"/>
<polygon fill="#000000" stroke="#000000" points="294.5277,-493.6377 286.9971,-486.1852 288.2365,-496.7073 294.5277,-493.6377"/>
<text text-anchor="middle" x="346.5" y="-507.4" font-family="Helvetica,sans-Serif" font-size="12.00" fill="#000000">Commit &amp; push</text>
</g>
</g>
</svg>
